<?xml version="1.0" encoding="UTF-8"?> <svg xmlns="http://www.w3.org/2000/svg" id="Layer_1" data-name="Layer 1" viewBox="0 0 401.15 89.74"><defs><style>.cls-1{fill:#ff864e;}</style></defs><title>Logo_1</title><path class="cls-1" d="M102.25,57.52a.81.81,0,0,1-.61-.25.88.88,0,0,1-.24-.62V37.73a.88.88,0,0,1,.24-.63.81.81,0,0,1,.61-.25h7.29a10.41,10.41,0,0,1,7.28,2.6,9,9,0,0,1,2.29,3.33,12.15,12.15,0,0,1,.79,4.41,12.41,12.41,0,0,1-.2,2.33,10.94,10.94,0,0,1-.59,2.07A8.51,8.51,0,0,1,116.82,55a9.22,9.22,0,0,1-3.24,1.92,12.05,12.05,0,0,1-4,.65Zm4-3.5h3.37a10.44,10.44,0,0,0,2.23-.25,4.94,4.94,0,0,0,2-1,5.4,5.4,0,0,0,1.52-2.06,8.43,8.43,0,0,0,.6-3.48,8.73,8.73,0,0,0-.6-3.5,5.4,5.4,0,0,0-1.52-2.06,5.12,5.12,0,0,0-2.06-1,10.24,10.24,0,0,0-2.2-.25H106.2a.79.79,0,0,0-.6.25.88.88,0,0,0-.24.62V53.14a.88.88,0,0,0,.24.63A.79.79,0,0,0,106.2,54Z"></path><path class="cls-1" d="M130.92,41.23v3.41a.85.85,0,0,0,.87.88H140a.85.85,0,0,1,.87.88v1.83a.83.83,0,0,1-.25.62.85.85,0,0,1-.62.26h-8.25a.85.85,0,0,0-.87.87v3.11a.85.85,0,0,0,.87.87h9.52a.85.85,0,0,1,.62.26.83.83,0,0,1,.25.62v1.81a.85.85,0,0,1-.87.87H127.84a.83.83,0,0,1-.62-.25.85.85,0,0,1-.26-.62V37.73a.86.86,0,0,1,.26-.63.83.83,0,0,1,.62-.25h13.47a.85.85,0,0,1,.87.88v1.75a.85.85,0,0,1-.87.87h-9.52a.85.85,0,0,0-.62.26A.83.83,0,0,0,130.92,41.23Z"></path><path class="cls-1" d="M150.15,54.11l1.18-1.76a.75.75,0,0,1,.54-.36.9.9,0,0,1,.65.14A21.89,21.89,0,0,0,155,53.48a7.79,7.79,0,0,0,3.48.79,5.14,5.14,0,0,0,1.69-.25,4,4,0,0,0,1.25-.62,2.84,2.84,0,0,0,.76-.88,1.91,1.91,0,0,0,.25-1,1.66,1.66,0,0,0-.39-1.07,3.59,3.59,0,0,0-1-.71c-.21-.09-.43-.17-.68-.25l-.82-.23c-.28-.07-.57-.14-.86-.19l-.92-.17-.67-.13-.77-.16a8,8,0,0,1-1.69-.42,7.61,7.61,0,0,1-1.72-.71,5.52,5.52,0,0,1-1.53-1.1,4.61,4.61,0,0,1-1.1-1.58,5.48,5.48,0,0,1-.4-2.14,5.86,5.86,0,0,1,.74-3,5.79,5.79,0,0,1,1.86-1.89,8.71,8.71,0,0,1,2.54-1,12.94,12.94,0,0,1,2.72-.28,14.53,14.53,0,0,1,2.31.17c.34.06.66.13,1,.21l.91.27a8.64,8.64,0,0,1,.88.38c.28.14.55.29.82.44s.36.22.53.34l.57.34a.84.84,0,0,1,.37.56.87.87,0,0,1-.17.65l-1.19,1.69a.86.86,0,0,1-.58.37.92.92,0,0,1-.66-.14,10.92,10.92,0,0,0-2.09-1.07,7.53,7.53,0,0,0-2.85-.54l-.55,0-.61.08a5.68,5.68,0,0,0-1.24.43,3.07,3.07,0,0,0-.53.31,2.27,2.27,0,0,0-.43.39,1.63,1.63,0,0,0-.37,1.08,1.37,1.37,0,0,0,.45,1,3.75,3.75,0,0,0,1.16.71c.24.09.49.18.75.25l.8.23.83.2c.28,0,.55.12.81.19l.65.14a6.69,6.69,0,0,0,.73.15,6.17,6.17,0,0,1,.82.15c.28.07.57.15.85.24l.47.14.46.17c.23.1.49.22.78.37a6.18,6.18,0,0,1,.75.45,3.08,3.08,0,0,1,.41.3l.35.32A4.71,4.71,0,0,1,166,49.22a6,6,0,0,1,.43,2.37,6.51,6.51,0,0,1-.57,2.8,5.09,5.09,0,0,1-1.61,2,6.87,6.87,0,0,1-2.48,1.18,12.25,12.25,0,0,1-3.2.4,14,14,0,0,1-2.85-.26,10.18,10.18,0,0,1-2.23-.65c-.34-.13-.67-.27-1-.43a10.63,10.63,0,0,1-.93-.53L151,55.7l-.6-.41a.75.75,0,0,1-.36-.54A.87.87,0,0,1,150.15,54.11Z"></path><path class="cls-1" d="M192.39,53.17c-.18.27-.38.53-.57.78a8.67,8.67,0,0,1-.64.72,9.7,9.7,0,0,1-2.2,1.72,9.24,9.24,0,0,1-1.25.65,9.8,9.8,0,0,1-1.35.48,10.59,10.59,0,0,1-2.88.4,10.21,10.21,0,0,1-4.15-.85,10.9,10.9,0,0,1-3.42-2.32,11,11,0,0,1-2.29-3.38,10.7,10.7,0,0,1,0-8.31,10.63,10.63,0,0,1,5.71-5.7,10.21,10.21,0,0,1,4.15-.85,10.78,10.78,0,0,1,6.65,2.3,11.43,11.43,0,0,1,1,.92,10.2,10.2,0,0,1,1.21,1.5.63.63,0,0,1,.09.6.78.78,0,0,1-.45.44l-2.09.85a1,1,0,0,1-.69,0,1.05,1.05,0,0,1-.61-.38,2.68,2.68,0,0,1-.28-.3l-.29-.29a6.62,6.62,0,0,0-.63-.57q-.33-.25-.69-.48a5.56,5.56,0,0,0-.77-.39,7.61,7.61,0,0,0-.79-.31,5.63,5.63,0,0,0-1.69-.26,6.46,6.46,0,0,0-2.66.57,6.71,6.71,0,0,0-2.11,1.55,7.62,7.62,0,0,0-1.44,2.23,6.79,6.79,0,0,0-.54,2.68,6.7,6.7,0,0,0,.54,2.69,7.62,7.62,0,0,0,1.44,2.23,5.83,5.83,0,0,0,2.11,1.52,5.93,5.93,0,0,0,2.66.6,5.63,5.63,0,0,0,1.69-.26c.27-.09.53-.2.79-.31a5.56,5.56,0,0,0,.77-.39,6.72,6.72,0,0,0,.69-.5,8.48,8.48,0,0,0,.63-.58l.29-.29a2.68,2.68,0,0,1,.28-.3,1.19,1.19,0,0,1,.61-.4,1,1,0,0,1,.69,0l2.09.85a.77.77,0,0,1,.45.45A.66.66,0,0,1,192.39,53.17Z"></path><path class="cls-1" d="M209.79,57.92a10.21,10.21,0,0,1-4.15-.85,10.81,10.81,0,0,1-3.4-2.3,11.12,11.12,0,0,1-2.31-3.4,10.8,10.8,0,0,1,0-8.35,10.84,10.84,0,0,1,5.71-5.72,10.63,10.63,0,0,1,8.33,0,11,11,0,0,1,3.4,2.3,10.78,10.78,0,0,1,2.3,3.42,10.68,10.68,0,0,1,0,8.35,10.92,10.92,0,0,1-2.3,3.4,10.81,10.81,0,0,1-3.4,2.3A10.28,10.28,0,0,1,209.79,57.92Zm0-17.77a6.2,6.2,0,0,0-2.63.58,7.13,7.13,0,0,0-3.59,3.79,6.9,6.9,0,0,0,0,5.35A7.32,7.32,0,0,0,205,52.11a7.07,7.07,0,0,0,2.14,1.56,6.28,6.28,0,0,0,5.27,0,7.07,7.07,0,0,0,2.14-1.56A7.32,7.32,0,0,0,216,49.87a6.9,6.9,0,0,0,0-5.35,7.13,7.13,0,0,0-3.59-3.79A6.21,6.21,0,0,0,209.8,40.15Z"></path><path class="cls-1" d="M249.07,37.33V56.65a.84.84,0,0,1-.25.62.81.81,0,0,1-.59.25H246a.85.85,0,0,1-.87-.87V48c0-.25-.05-.39-.16-.44s-.23,0-.38.24l-5.36,6.41a.68.68,0,0,1-.55.28.67.67,0,0,1-.55-.28l-5.34-6.41c-.15-.19-.28-.26-.4-.23s-.17.18-.17.43v8.7a.85.85,0,0,1-.87.87h-2.2a.85.85,0,0,1-.88-.87V37.33a.37.37,0,0,1,.34-.42.55.55,0,0,1,.56.22l8.93,11a.76.76,0,0,0,1.13,0l8.95-11a.55.55,0,0,1,.56-.22A.37.37,0,0,1,249.07,37.33Z"></path><path class="cls-1" d="M269.94,37.41A7.72,7.72,0,0,1,272.26,39a5.75,5.75,0,0,1,.89,1.07,12.35,12.35,0,0,1,.69,1.24,7.46,7.46,0,0,1,.56,2.88,7.69,7.69,0,0,1-.5,2.83,6.39,6.39,0,0,1-1.5,2.26,6.82,6.82,0,0,1-2.49,1.52,10.08,10.08,0,0,1-3.5.57h-3.73a.85.85,0,0,0-.87.87v4.41a.88.88,0,0,1-.24.62.79.79,0,0,1-.61.25h-2.23a.85.85,0,0,1-.87-.87V37.73a.85.85,0,0,1,.87-.88h8.33A7.65,7.65,0,0,1,269.94,37.41ZM268.59,47.5a3,3,0,0,0,1.07-.79,3.94,3.94,0,0,0,.35-.55,2.42,2.42,0,0,0,.24-.61,4.37,4.37,0,0,0,.2-1.36,4.29,4.29,0,0,0-.25-1.41,3.46,3.46,0,0,0-.74-1.21,3.35,3.35,0,0,0-1.18-.88,3.61,3.61,0,0,0-1.64-.34h-4a.85.85,0,0,0-.62.26.83.83,0,0,0-.25.62v5.7a.83.83,0,0,0,.25.62.85.85,0,0,0,.62.26h4.38A3.73,3.73,0,0,0,268.59,47.5Z"></path><path class="cls-1" d="M296.12,54.9v1.75a.85.85,0,0,1-.87.87H282.11a.85.85,0,0,1-.87-.87V37.73a.85.85,0,0,1,.87-.88h2.21a.85.85,0,0,1,.87.88V53.14a.86.86,0,0,0,.26.63.83.83,0,0,0,.62.25h9.18a.89.89,0,0,1,.62.25A.85.85,0,0,1,296.12,54.9Z"></path><path class="cls-1" d="M306.49,57.52h-2.24a.79.79,0,0,1-.6-.25.88.88,0,0,1-.24-.62V37.75a.88.88,0,0,1,.24-.62.79.79,0,0,1,.6-.25h2.24a.85.85,0,0,1,.87.87v18.9a.85.85,0,0,1-.87.87Zm1-25.58,1.7.73a.54.54,0,0,1,.35.38c0,.16-.06.32-.27.47l-2.63,2a1.34,1.34,0,0,1-.56.3,2.45,2.45,0,0,1-.62.07h-1.19c-.24,0-.4-.06-.46-.2s0-.29.12-.48l2.38-3a.8.8,0,0,1,.55-.31A1.18,1.18,0,0,1,307.5,31.94Z"></path><path class="cls-1" d="M335.15,53.17c-.19.27-.38.53-.58.78a8.67,8.67,0,0,1-.64.72,9.48,9.48,0,0,1-2.2,1.72,9.12,9.12,0,0,1-1.24.65,9.93,9.93,0,0,1-1.36.48,10.59,10.59,0,0,1-2.88.4,10.21,10.21,0,0,1-4.15-.85,10.83,10.83,0,0,1-5.7-5.7,10.58,10.58,0,0,1,0-8.31,11.45,11.45,0,0,1,2.28-3.41,11.66,11.66,0,0,1,3.42-2.29,10.21,10.21,0,0,1,4.15-.85,11,11,0,0,1,5.48,1.5,8.92,8.92,0,0,1,1.17.8,11.43,11.43,0,0,1,1,.92,10.29,10.29,0,0,1,1.22,1.5.63.63,0,0,1,.08.6.73.73,0,0,1-.45.44l-2.09.85a1,1,0,0,1-.69,0,1.09,1.09,0,0,1-.61-.38c-.09-.09-.19-.19-.28-.3l-.28-.29a6.71,6.71,0,0,0-.64-.57,6,6,0,0,0-.69-.48,5.45,5.45,0,0,0-.76-.39c-.27-.12-.53-.22-.79-.31a5.7,5.7,0,0,0-1.7-.26,6.41,6.41,0,0,0-2.65.57,6.64,6.64,0,0,0-2.12,1.55A8,8,0,0,0,320,44.53a6.79,6.79,0,0,0-.54,2.68A6.7,6.7,0,0,0,320,49.9a8,8,0,0,0,1.44,2.23,5.78,5.78,0,0,0,2.12,1.52,5.89,5.89,0,0,0,2.65.6A5.7,5.7,0,0,0,328,54c.26-.09.52-.2.79-.31a5.45,5.45,0,0,0,.76-.39,5.08,5.08,0,0,0,.69-.5,8.6,8.6,0,0,0,.64-.58l.28-.29c.09-.11.19-.21.28-.3a1.23,1.23,0,0,1,.61-.4,1,1,0,0,1,.69,0l2.09.85a.72.72,0,0,1,.45.45A.66.66,0,0,1,335.15,53.17Z"></path><path class="cls-1" d="M340.32,56.76l9.8-19.57a.57.57,0,0,1,.56-.34.59.59,0,0,1,.57.34l9.8,19.57a.56.56,0,0,1,0,.54.52.52,0,0,1-.5.22H358a1.37,1.37,0,0,1-.73-.22,1.26,1.26,0,0,1-.51-.57L355.93,55a1.41,1.41,0,0,0-.52-.54,1.31,1.31,0,0,0-.72-.23h-8a1.39,1.39,0,0,0-.73.23,1.16,1.16,0,0,0-.51.57l-.82,1.66a1.42,1.42,0,0,1-.52.57,1.34,1.34,0,0,1-.72.22H340.8a.52.52,0,0,1-.5-.22A.58.58,0,0,1,340.32,56.76Zm8.27-5.93h4.18a.52.52,0,0,0,.5-.24.6.6,0,0,0,0-.55l-2.2-4.66c-.1-.23-.22-.34-.37-.34s-.27.11-.37.34L348.08,50a.61.61,0,0,0,0,.56A.57.57,0,0,0,348.59,50.83Z"></path><path class="cls-1" d="M378.1,40.35H374a.85.85,0,0,0-.62.26.83.83,0,0,0-.25.62V56.65a.85.85,0,0,1-.26.62.83.83,0,0,1-.62.25H370a.83.83,0,0,1-.62-.25.85.85,0,0,1-.26-.62V41.23a.83.83,0,0,0-.25-.62.85.85,0,0,0-.62-.26h-4.18a.83.83,0,0,1-.62-.25.85.85,0,0,1-.26-.62V37.73a.86.86,0,0,1,.26-.63.83.83,0,0,1,.62-.25h14a.83.83,0,0,1,.62.25.86.86,0,0,1,.26.63v1.75a.85.85,0,0,1-.26.62A.83.83,0,0,1,378.1,40.35Z"></path><path class="cls-1" d="M389.88,41.23v3.41a.85.85,0,0,0,.87.88H399a.83.83,0,0,1,.62.25.86.86,0,0,1,.26.63v1.83a.89.89,0,0,1-.88.88h-8.25a.85.85,0,0,0-.87.87v3.11a.85.85,0,0,0,.87.87h9.52a.89.89,0,0,1,.88.88v1.81a.85.85,0,0,1-.26.62.83.83,0,0,1-.62.25H386.8a.85.85,0,0,1-.87-.87V37.73a.85.85,0,0,1,.87-.88h13.47a.83.83,0,0,1,.62.25.86.86,0,0,1,.26.63v1.75a.85.85,0,0,1-.26.62.83.83,0,0,1-.62.25h-9.52a.85.85,0,0,0-.62.26A.83.83,0,0,0,389.88,41.23Z"></path><path class="cls-1" d="M9.39,40.14a4.7,4.7,0,1,1-4.7-4.69A4.7,4.7,0,0,1,9.39,40.14Z"></path><path class="cls-1" d="M68,25.57a33.24,33.24,0,0,0-24-18C28.05,5,13.24,14.66,7.92,28.84a5,5,0,0,0,4.64,6.73h.09a5,5,0,0,0,4.67-3.3,22.55,22.55,0,1,1,0,15.38,5,5,0,0,0-4.67-3.3h-.21A5,5,0,0,0,7.8,51.1c.1.27.21.53.33.8,2.24,5.27,6,9.76,9.62,14.17l19,22.84a2.29,2.29,0,0,0,3.56,0C45.73,82,51.19,75.21,57,68.68c3.7-4.16,7.56-8.25,10.24-13.13a33.27,33.27,0,0,0,.76-30Z"></path><path class="cls-1" d="M48.66,3.43a2,2,0,0,0-1,1.73v35a9.27,9.27,0,0,1-9.27,9.26v9.27A18.53,18.53,0,0,0,56.94,40.15V2a2,2,0,0,0-3-1.73Z"></path><path class="cls-1" d="M38.41,21.61a18.54,18.54,0,0,0,0,37.07l.21,0,0-9.31h-.23a9.27,9.27,0,1,1,0-18.53h0c10.23,0,16.72-5,18.53-9.27V8.26C56.94,18.5,48.64,21.61,38.41,21.61Z"></path></svg> 